<?xml version="1.0" encoding="UTF-8" standalone="no"?>
<!-- Created with Inkscape (http://www.inkscape.org/) -->

<svg
   xmlns:dc="http://purl.org/dc/elements/1.1/"
   xmlns:cc="http://creativecommons.org/ns#"
   xmlns:rdf="http://www.w3.org/1999/02/22-rdf-syntax-ns#"
   xmlns:svg="http://www.w3.org/2000/svg"
   xmlns="http://www.w3.org/2000/svg"
   xmlns:xlink="http://www.w3.org/1999/xlink"
   xmlns:sodipodi="http://sodipodi.sourceforge.net/DTD/sodipodi-0.dtd"
   xmlns:inkscape="http://www.inkscape.org/namespaces/inkscape"
   width="885.33295"
   height="1408.9333"
   id="svg2"
   version="1.1"
   inkscape:version="0.48.4 r9939"
   sodipodi:docname="Harden.svg">
  <defs
     id="defs4">
    <linearGradient
       inkscape:collect="always"
       id="linearGradient4322">
      <stop
         style="stop-color:#784421;stop-opacity:1;"
         offset="0"
         id="stop4324" />
      <stop
         style="stop-color:#502d16;stop-opacity:1"
         offset="1"
         id="stop4326" />
    </linearGradient>
    <linearGradient
       id="linearGradient4308">
      <stop
         style="stop-color:#854b25;stop-opacity:1;"
         offset="0"
         id="stop4310" />
      <stop
         id="stop4312"
         offset="0.5622617"
         style="stop-color:#8f5127;stop-opacity:0.49803922;" />
      <stop
         style="stop-color:#784421;stop-opacity:0;"
         offset="1"
         id="stop4314" />
    </linearGradient>
    <linearGradient
       inkscape:collect="always"
       id="linearGradient4223">
      <stop
         style="stop-color:#ffaaaa;stop-opacity:1;"
         offset="0"
         id="stop4225" />
      <stop
         style="stop-color:#ffaaaa;stop-opacity:0;"
         offset="1"
         id="stop4227" />
    </linearGradient>
    <linearGradient
       inkscape:collect="always"
       id="linearGradient4205">
      <stop
         style="stop-color:#ff8080;stop-opacity:1;"
         offset="0"
         id="stop4207" />
      <stop
         style="stop-color:#ff8080;stop-opacity:0;"
         offset="1"
         id="stop4209" />
    </linearGradient>
    <linearGradient
       inkscape:collect="always"
       id="linearGradient4153">
      <stop
         style="stop-color:#d35f5f;stop-opacity:1;"
         offset="0"
         id="stop4155" />
      <stop
         style="stop-color:#d35f5f;stop-opacity:0;"
         offset="1"
         id="stop4157" />
    </linearGradient>
    <linearGradient
       inkscape:collect="always"
       id="linearGradient4105">
      <stop
         style="stop-color:#9b572b;stop-opacity:1"
         offset="0"
         id="stop4107" />
      <stop
         style="stop-color:#c9733b;stop-opacity:0;"
         offset="1"
         id="stop4109" />
    </linearGradient>
    <linearGradient
       inkscape:collect="always"
       id="linearGradient4087">
      <stop
         style="stop-color:#c9733b;stop-opacity:1"
         offset="0"
         id="stop4089" />
      <stop
         style="stop-color:#683b1c;stop-opacity:1"
         offset="1"
         id="stop4091" />
    </linearGradient>
    <linearGradient
       id="linearGradient3958">
      <stop
         id="stop3960"
         offset="0"
         style="stop-color:#854b25;stop-opacity:1;" />
      <stop
         style="stop-color:#8f5127;stop-opacity:0.49803922;"
         offset="0.69999999"
         id="stop3962" />
      <stop
         id="stop3964"
         offset="1"
         style="stop-color:#784421;stop-opacity:0;" />
    </linearGradient>
    <linearGradient
       id="linearGradient3932">
      <stop
         style="stop-color:#a65e2e;stop-opacity:1;"
         offset="0"
         id="stop3934" />
      <stop
         id="stop3956"
         offset="0.5"
         style="stop-color:#8f5127;stop-opacity:0.49803922;" />
      <stop
         style="stop-color:#784421;stop-opacity:0;"
         offset="1"
         id="stop3936" />
    </linearGradient>
    <radialGradient
       inkscape:collect="always"
       xlink:href="#linearGradient3932"
       id="radialGradient3938"
       cx="2050.6096"
       cy="343.23511"
       fx="2050.6096"
       fy="343.23511"
       r="333.35034"
       gradientTransform="matrix(1,0,0,0.60606059,0,135.21383)"
       gradientUnits="userSpaceOnUse" />
    <radialGradient
       inkscape:collect="always"
       xlink:href="#linearGradient3958"
       id="radialGradient3950"
       cx="1882.8572"
       cy="209.50504"
       fx="1882.8572"
       fy="209.50504"
       r="77.14286"
       gradientUnits="userSpaceOnUse" />
    <radialGradient
       inkscape:collect="always"
       xlink:href="#linearGradient4308"
       id="radialGradient3984"
       gradientUnits="userSpaceOnUse"
       cx="1882.8572"
       cy="209.50504"
       fx="1882.8572"
       fy="209.50504"
       r="77.14286" />
    <radialGradient
       inkscape:collect="always"
       xlink:href="#linearGradient3958"
       id="radialGradient3986"
       gradientUnits="userSpaceOnUse"
       cx="1882.8572"
       cy="209.50504"
       fx="1882.8572"
       fy="209.50504"
       r="77.14286" />
    <radialGradient
       inkscape:collect="always"
       xlink:href="#linearGradient4087"
       id="radialGradient4093"
       cx="2048.0337"
       cy="614.07477"
       fx="2048.0337"
       fy="614.07477"
       r="143.94675"
       gradientTransform="matrix(1.0896543,1.3833689e-8,0,0.41571015,-183.61498,334.65053)"
       gradientUnits="userSpaceOnUse" />
    <radialGradient
       inkscape:collect="always"
       xlink:href="#linearGradient4105"
       id="radialGradient4111"
       cx="2048.5715"
       cy="487.32959"
       fx="2048.5715"
       fy="487.32959"
       r="44.285713"
       gradientTransform="matrix(1,0,0,2.9728728,0,-966.17947)"
       gradientUnits="userSpaceOnUse" />
    <radialGradient
       inkscape:collect="always"
       xlink:href="#linearGradient4153"
       id="radialGradient4159"
       cx="2041.0536"
       cy="857.87128"
       fx="2041.0536"
       fy="857.87128"
       r="129.73296"
       gradientTransform="matrix(1,0,0,0.30302855,-682.85714,597.91178)"
       gradientUnits="userSpaceOnUse" />
    <radialGradient
       inkscape:collect="always"
       xlink:href="#linearGradient4153"
       id="radialGradient4171"
       gradientUnits="userSpaceOnUse"
       gradientTransform="matrix(1,0,0,0.30302855,-684.37237,597.91178)"
       cx="2041.0536"
       cy="857.87128"
       fx="2041.0536"
       fy="857.87128"
       r="129.73296" />
    <radialGradient
       inkscape:collect="always"
       xlink:href="#linearGradient4153"
       id="radialGradient4173"
       gradientUnits="userSpaceOnUse"
       gradientTransform="matrix(1,0,0,0.30302855,-682.85714,597.91178)"
       cx="2041.0536"
       cy="857.87128"
       fx="2041.0536"
       fy="857.87128"
       r="129.73296" />
    <radialGradient
       inkscape:collect="always"
       xlink:href="#linearGradient4153"
       id="radialGradient4175"
       gradientUnits="userSpaceOnUse"
       gradientTransform="matrix(1,0,0,0.30302855,-684.37237,597.91178)"
       cx="2041.0536"
       cy="857.87128"
       fx="2041.0536"
       fy="857.87128"
       r="129.73296" />
    <radialGradient
       inkscape:collect="always"
       xlink:href="#linearGradient4153"
       id="radialGradient4178"
       gradientUnits="userSpaceOnUse"
       gradientTransform="matrix(1,0,0,-0.30302855,-562.32321,1010.6879)"
       cx="2041.0536"
       cy="857.87128"
       fx="2041.0536"
       fy="857.87128"
       r="129.73296" />
    <radialGradient
       inkscape:collect="always"
       xlink:href="#linearGradient4153"
       id="radialGradient4181"
       gradientUnits="userSpaceOnUse"
       gradientTransform="matrix(1,0,0,0.30302855,-682.85714,597.91178)"
       cx="2041.0536"
       cy="857.87128"
       fx="2041.0536"
       fy="857.87128"
       r="129.73296" />
    <radialGradient
       inkscape:collect="always"
       xlink:href="#linearGradient4153"
       id="radialGradient4184"
       gradientUnits="userSpaceOnUse"
       gradientTransform="matrix(1,0,0,0.30302855,-560.80798,563.62607)"
       cx="2041.0536"
       cy="857.87128"
       fx="2041.0536"
       fy="857.87128"
       r="129.73296" />
    <radialGradient
       inkscape:collect="always"
       xlink:href="#linearGradient4205"
       id="radialGradient4289"
       gradientUnits="userSpaceOnUse"
       gradientTransform="matrix(1,0,0,0.35253636,567.70573,529.15397)"
       cx="1480.5397"
       cy="869.95154"
       fx="1480.5397"
       fy="869.95154"
       r="129.42281" />
    <radialGradient
       inkscape:collect="always"
       xlink:href="#linearGradient4223"
       id="radialGradient4291"
       gradientUnits="userSpaceOnUse"
       gradientTransform="matrix(1,0,0,0.2381199,567.70573,568.31691)"
       cx="1481.3346"
       cy="775.93695"
       fx="1481.3346"
       fy="775.93695"
       r="129.56277" />
    <linearGradient
       inkscape:collect="always"
       xlink:href="#linearGradient4322"
       id="linearGradient4328"
       x1="1594.0765"
       y1="383.46515"
       x2="1627.8125"
       y2="393.56668"
       gradientUnits="userSpaceOnUse" />
    <linearGradient
       inkscape:collect="always"
       xlink:href="#linearGradient4322"
       id="linearGradient4344"
       gradientUnits="userSpaceOnUse"
       x1="1594.0765"
       y1="383.46515"
       x2="1627.8125"
       y2="393.56668" />
    <linearGradient
       inkscape:collect="always"
       xlink:href="#linearGradient4322"
       id="linearGradient4352"
       gradientUnits="userSpaceOnUse"
       x1="1594.0765"
       y1="383.46515"
       x2="1627.8125"
       y2="393.56668" />
    <linearGradient
       inkscape:collect="always"
       xlink:href="#linearGradient4322"
       id="linearGradient4358"
       gradientUnits="userSpaceOnUse"
       x1="1594.0765"
       y1="383.46515"
       x2="1627.8125"
       y2="393.56668" />
    <linearGradient
       inkscape:collect="always"
       xlink:href="#linearGradient4322"
       id="linearGradient4444"
       gradientUnits="userSpaceOnUse"
       x1="1594.0765"
       y1="383.46515"
       x2="1627.8125"
       y2="393.56668" />
    <linearGradient
       inkscape:collect="always"
       xlink:href="#linearGradient4322"
       id="linearGradient4446"
       gradientUnits="userSpaceOnUse"
       x1="1594.0765"
       y1="383.46515"
       x2="1627.8125"
       y2="393.56668" />
    <radialGradient
       inkscape:collect="always"
       xlink:href="#linearGradient3932"
       id="radialGradient4448"
       gradientUnits="userSpaceOnUse"
       gradientTransform="matrix(1,0,0,0.60606059,0,135.21383)"
       cx="2050.6096"
       cy="343.23511"
       fx="2050.6096"
       fy="343.23511"
       r="333.35034" />
    <radialGradient
       inkscape:collect="always"
       xlink:href="#linearGradient3958"
       id="radialGradient4450"
       gradientUnits="userSpaceOnUse"
       cx="1882.8572"
       cy="209.50504"
       fx="1882.8572"
       fy="209.50504"
       r="77.14286" />
    <radialGradient
       inkscape:collect="always"
       xlink:href="#linearGradient3958"
       id="radialGradient4452"
       gradientUnits="userSpaceOnUse"
       cx="1882.8572"
       cy="209.50504"
       fx="1882.8572"
       fy="209.50504"
       r="77.14286" />
    <radialGradient
       inkscape:collect="always"
       xlink:href="#linearGradient4308"
       id="radialGradient4454"
       gradientUnits="userSpaceOnUse"
       cx="1882.8572"
       cy="209.50504"
       fx="1882.8572"
       fy="209.50504"
       r="77.14286" />
    <radialGradient
       inkscape:collect="always"
       xlink:href="#linearGradient4087"
       id="radialGradient4456"
       gradientUnits="userSpaceOnUse"
       gradientTransform="matrix(1.0896543,1.3833689e-8,0,0.41571015,-183.61498,334.65053)"
       cx="2048.0337"
       cy="614.07477"
       fx="2048.0337"
       fy="614.07477"
       r="143.94675" />
    <radialGradient
       inkscape:collect="always"
       xlink:href="#linearGradient4105"
       id="radialGradient4458"
       gradientUnits="userSpaceOnUse"
       gradientTransform="matrix(1,0,0,2.9728728,0,-966.17947)"
       cx="2048.5715"
       cy="487.32959"
       fx="2048.5715"
       fy="487.32959"
       r="44.285713" />
    <radialGradient
       inkscape:collect="always"
       xlink:href="#linearGradient4205"
       id="radialGradient4460"
       gradientUnits="userSpaceOnUse"
       gradientTransform="matrix(1,0,0,0.35253636,567.70573,529.15397)"
       cx="1480.5397"
       cy="869.95154"
       fx="1480.5397"
       fy="869.95154"
       r="129.42281" />
    <radialGradient
       inkscape:collect="always"
       xlink:href="#linearGradient4223"
       id="radialGradient4462"
       gradientUnits="userSpaceOnUse"
       gradientTransform="matrix(1,0,0,0.2381199,567.70573,568.31691)"
       cx="1481.3346"
       cy="775.93695"
       fx="1481.3346"
       fy="775.93695"
       r="129.56277" />
  </defs>
  <sodipodi:namedview
     id="base"
     pagecolor="#ffffff"
     bordercolor="#666666"
     borderopacity="1.0"
     inkscape:pageopacity="0.0"
     inkscape:pageshadow="2"
     inkscape:zoom="0.12374369"
     inkscape:cx="-1075.7917"
     inkscape:cy="-40.60387"
     inkscape:document-units="px"
     inkscape:current-layer="layer1"
     showgrid="false"
     inkscape:snap-global="false"
     inkscape:window-width="1139"
     inkscape:window-height="865"
     inkscape:window-x="229"
     inkscape:window-y="16"
     inkscape:window-maximized="0"
     fit-margin-top="0"
     fit-margin-left="0"
     fit-margin-right="0"
     fit-margin-bottom="0">
    <inkscape:grid
       type="xygrid"
       id="grid2993"
       empspacing="5"
       visible="true"
       enabled="true"
       snapvisiblegridlinesonly="true"
       originx="-1592.5478px"
       originy="269.58004px" />
  </sodipodi:namedview>
  <metadata
     id="metadata7">
    <rdf:RDF>
      <cc:Work
         rdf:about="">
        <dc:format>image/svg+xml</dc:format>
        <dc:type
           rdf:resource="http://purl.org/dc/dcmitype/StillImage" />
        <dc:title></dc:title>
      </cc:Work>
    </rdf:RDF>
  </metadata>
  <g
     inkscape:label="Layer 1"
     inkscape:groupmode="layer"
     id="layer1"
     transform="translate(-1592.5478,86.991166)">
    <g
       id="g4360"
       transform="matrix(0.97334621,0,0,1,42.44743,0)">
      <g
         id="g4346"
         transform="matrix(-1.1548028,-0.07464567,-0.13953713,2.0153744,4291.4227,-149.87673)">
        <path
           sodipodi:type="arc"
           style="fill:url(#linearGradient4444);fill-opacity:1;fill-rule:evenodd;stroke:none"
           id="path4348"
           sodipodi:cx="1623.5714"
           sodipodi:cy="401.64789"
           sodipodi:rx="30"
           sodipodi:ry="67.14286"
           d="m 1653.5714,401.64789 c 0,37.08198 -13.4314,67.14286 -30,67.14286 -16.5685,0 -30,-30.06088 -30,-67.14286 0,-37.08198 13.4315,-67.14286 30,-67.14286 16.5686,0 30,30.06088 30,67.14286 z"
           transform="translate(-90.714286,-7.1428572)" />
        <path
           transform="matrix(0.83333333,0,0,0.93085107,184.88095,25.273523)"
           d="m 1653.5714,401.64789 c 0,37.08198 -13.4314,67.14286 -30,67.14286 -16.5685,0 -30,-30.06088 -30,-67.14286 0,-37.08198 13.4315,-67.14286 30,-67.14286 16.5686,0 30,30.06088 30,67.14286 z"
           sodipodi:ry="67.14286"
           sodipodi:rx="30"
           sodipodi:cy="401.64789"
           sodipodi:cx="1623.5714"
           id="path4350"
           style="fill:#502d16;fill-opacity:1;fill-rule:evenodd;stroke:none"
           sodipodi:type="arc" />
      </g>
      <path
         sodipodi:nodetypes="scccscsccs"
         inkscape:connector-curvature="0"
         id="path3925"
         d="m 2129.5528,38.33484 c -28.4794,-0.160535 -58.7656,5.112387 -103.25,3.109645 -93.1828,-0.30727 -176.3434,-9.937653 -249.7188,62.632665 -140.8303,181.55787 -114.5222,221.74028 -139.6383,335.81032 0.4624,102.12976 6.2297,225.88602 76.0446,275.21486 90.9152,64.23762 98.698,-32.92676 331.8437,-36.44075 172.2946,0 193.8365,68.9756 273.1876,23.31562 79.3572,-45.66348 102.6935,-148.71481 134.2366,-269.4398 C 2408.1937,321.58561 2391.8535,193.63976 2271.1197,92.957807 2214.1131,47.724674 2166.1692,38.541241 2129.5528,38.33484 z"
         style="font-size:medium;font-style:normal;font-variant:normal;font-weight:normal;font-stretch:normal;text-indent:0;text-align:start;text-decoration:none;line-height:normal;letter-spacing:normal;word-spacing:normal;text-transform:none;direction:ltr;block-progression:tb;writing-mode:lr-tb;text-anchor:start;baseline-shift:baseline;color:#000000;fill:#63381b;fill-opacity:1;fill-rule:evenodd;stroke:none;stroke-width:20;marker:none;visibility:visible;display:inline;overflow:visible;enable-background:accumulate;font-family:Sans;-inkscape-font-specification:Sans" />
      <g
         transform="matrix(0.99850532,-0.06087034,0.09412355,1.9151401,49.756113,-174.65292)"
         id="g4340">
        <g
           transform="translate(3.1819583,26.954821)"
           id="g4354">
          <path
             sodipodi:type="arc"
             style="fill:url(#linearGradient4446);fill-opacity:1;fill-rule:evenodd;stroke:none"
             id="path4320"
             sodipodi:cx="1623.5714"
             sodipodi:cy="401.64789"
             sodipodi:rx="30"
             sodipodi:ry="67.14286"
             d="m 1653.5714,401.64789 c 0,37.08198 -13.4314,67.14286 -30,67.14286 -16.5685,0 -30,-30.06088 -30,-67.14286 0,-37.08198 13.4315,-67.14286 30,-67.14286 16.5686,0 30,30.06088 30,67.14286 z"
             transform="translate(-90.714286,-7.1428572)" />
          <path
             transform="matrix(0.83333333,0,0,0.93085107,184.88095,25.273523)"
             d="m 1653.5714,401.64789 c 0,37.08198 -13.4314,67.14286 -30,67.14286 -16.5685,0 -30,-30.06088 -30,-67.14286 0,-37.08198 13.4315,-67.14286 30,-67.14286 16.5686,0 30,30.06088 30,67.14286 z"
             sodipodi:ry="67.14286"
             sodipodi:rx="30"
             sodipodi:cy="401.64789"
             sodipodi:cx="1623.5714"
             id="path4316"
             style="fill:#502d16;fill-opacity:1;fill-rule:evenodd;stroke:none"
             sodipodi:type="arc" />
        </g>
      </g>
      <path
         sodipodi:nodetypes="sscccccsscccsscssccc"
         inkscape:connector-curvature="0"
         id="path2995"
         d="m 2030.0312,-86.990492 c -31.2357,-0.144113 -68,22.862819 -98.25,40.934331 -27.9798,16.715371 -51.2236,40.1360959 -55.375,68.8125 -97.159,9.870808 -338.3046,215.372151 -241.4782,419.098211 -67.7019,373.53701 72.9596,876.73665 417.1938,880.08765 375.8699,0 487.1648,-560.61874 406.4407,-887.85638 71.5492,-213.32258 -178.116,-401.051934 -277.8437,-411.329481 -4.0824,-28.5524521 -26.7827,-51.927149 -54.1876,-68.59375 -29.639,-18.025454 -65.7028,-41.010992 -96.5,-41.153081 z m -0.2686,131.993662 c 101.6786,4.554294 129.1599,-28.744191 230.5051,51.259212 120.7338,100.167288 134.2303,227.438808 178.2948,337.823438 -31.5431,120.10788 -37.7279,202.65096 -117.0851,248.08103 -71.6539,41.02014 -74.4558,-12.1357 -205.401,-22.83406 -14.0663,-1.14923 -51.079,11.04861 -67.7918,11.04861 -17.3087,0.25955 -50.548,-11.84814 -65.4989,-10.70908 -186.4349,14.2038 -182.1902,88.98801 -266.3559,29.82337 -69.8149,-49.0767 -62.7128,-146.49038 -63.1752,-248.09808 25.1161,-113.48694 -14.0536,-153.46554 126.7767,-334.09534 73.3754,-72.199355 156.5485,-62.6048 249.7313,-62.2991 z"
         style="font-size:medium;font-style:normal;font-variant:normal;font-weight:normal;font-stretch:normal;text-indent:0;text-align:start;text-decoration:none;line-height:normal;letter-spacing:normal;word-spacing:normal;text-transform:none;direction:ltr;block-progression:tb;writing-mode:lr-tb;text-anchor:start;baseline-shift:baseline;color:#000000;fill:#000000;fill-opacity:1;fill-rule:evenodd;stroke:none;stroke-width:20;marker:none;visibility:visible;display:inline;overflow:visible;enable-background:accumulate;font-family:Sans;-inkscape-font-specification:Sans" />
      <path
         sodipodi:nodetypes="ccccccccc"
         inkscape:connector-curvature="0"
         id="path3930"
         d="m 1854.6401,153.32642 c 113.1371,-24.93462 226.2741,-44.88586 339.4112,-1.01015 106.0769,45.51533 136.2125,127.22797 175.7666,211.12188 -102.4986,-27.91898 -188.3455,-57.92866 -256.528,49.72515 -13.1705,74.41525 -3.2217,113.80614 5.6635,165.58092 l -142.1567,2.0203 c 21.4302,-55.01003 18.1899,-127.39203 0.4903,-178.45908 -99.1773,-110.1501 -160.2835,-43.55759 -252.4664,-23.62218 16.5769,-90.84773 45.7177,-153.39206 129.8195,-225.35684 z"
         style="fill:url(#radialGradient4448);fill-opacity:1;stroke:none" />
      <g
         transform="matrix(-1,0,0,1,4084.1594,0)"
         id="g3886">
        <g
           id="g3888"
           transform="matrix(0.99974551,-0.02255893,0.02255893,0.99974551,-9.1313336,42.104806)">
          <path
             style="font-size:medium;font-style:normal;font-variant:normal;font-weight:normal;font-stretch:normal;text-indent:0;text-align:start;text-decoration:none;line-height:normal;letter-spacing:normal;word-spacing:normal;text-transform:none;direction:ltr;block-progression:tb;writing-mode:lr-tb;text-anchor:start;baseline-shift:baseline;color:#000000;fill:#28170b;fill-opacity:1;stroke:none;stroke-width:10;marker:none;visibility:visible;display:inline;overflow:visible;enable-background:accumulate;font-family:Sans;-inkscape-font-specification:Sans"
             d="m 1761.4952,436.77204 -8.0628,9.08587 8.0628,3.19381 c 64.9622,40.38086 131.5351,42.64047 200.0052,0 l 8.3327,-3.72776 -8.3327,-8.55192 c -52.4439,-71.53369 -112.7281,-101.59905 -200.0052,0 z"
             id="path3890"
             inkscape:connector-curvature="0"
             sodipodi:nodetypes="ccccccc" />
          <path
             sodipodi:nodetypes="ccccc"
             inkscape:connector-curvature="0"
             id="path3892"
             d="m 1773.5033,438.15457 c -2.237,2.98921 -2.9787,3.17194 0,7.5836 57.1233,35.5081 115.6628,37.49504 175.8706,0 3.2494,-3.5993 2.4403,-3.9843 0,-7.5836 -56.5787,-38.35443 -119.068,-35.04536 -175.8706,0 z"
             style="font-size:medium;font-style:normal;font-variant:normal;font-weight:normal;font-stretch:normal;text-indent:0;text-align:start;text-decoration:none;line-height:normal;letter-spacing:normal;word-spacing:normal;text-transform:none;direction:ltr;block-progression:tb;writing-mode:lr-tb;text-anchor:start;baseline-shift:baseline;color:#000000;fill:#ffffff;fill-opacity:1;stroke:none;stroke-width:10;marker:none;visibility:visible;display:inline;overflow:visible;enable-background:accumulate;font-family:Sans;-inkscape-font-specification:Sans" />
          <path
             style="fill:#502d16;fill-opacity:1;fill-rule:evenodd;stroke:none"
             d="m 1904.0333,431.66277 c 0,17.9975 -10.7124,33.493 -26.1088,40.45819 -9.9186,1.23507 -22.6477,1.7894 -37.8952,-0.63695 -14.6707,-7.24245 -24.7618,-22.35339 -24.7618,-39.82124 0,-4.94732 0.8095,-9.70557 2.3032,-14.14954 13.9562,-6.11018 59.7002,-11.99808 83.3889,-2.11232 1.9839,5.03569 3.0737,10.52151 3.0737,16.26186 z"
             id="path3894"
             inkscape:connector-curvature="0"
             sodipodi:nodetypes="sccsccs" />
          <path
             style="fill:#000000;fill-opacity:1;fill-rule:evenodd;stroke:none"
             d="m 1887.6752,433.13872 c 0,15.48149 -12.5502,28.03172 -28.0318,28.03172 -15.4814,0 -28.0316,-12.55023 -28.0316,-28.03172 0,-8.53191 3.8117,-16.17354 9.825,-21.3149 6.0603,-0.74445 23.6707,-2.54956 34.6387,-1.39811 7.0283,5.09355 11.5997,13.36942 11.5997,22.71301 z"
             id="path3896"
             inkscape:connector-curvature="0"
             sodipodi:nodetypes="sssccs" />
        </g>
      </g>
      <g
         id="g3874">
        <g
           transform="matrix(0.99974551,-0.02255893,0.02255893,0.99974551,-9.1313336,42.104806)"
           id="g3880">
          <path
             sodipodi:nodetypes="ccccccc"
             inkscape:connector-curvature="0"
             id="path3015"
             d="m 1761.4952,436.77204 -8.0628,9.08587 8.0628,3.19381 c 64.9622,40.38086 131.5351,42.64047 200.0052,0 l 8.3327,-3.72776 -8.3327,-8.55192 c -52.4439,-71.53369 -112.7281,-101.59905 -200.0052,0 z"
             style="font-size:medium;font-style:normal;font-variant:normal;font-weight:normal;font-stretch:normal;text-indent:0;text-align:start;text-decoration:none;line-height:normal;letter-spacing:normal;word-spacing:normal;text-transform:none;direction:ltr;block-progression:tb;writing-mode:lr-tb;text-anchor:start;baseline-shift:baseline;color:#000000;fill:#28170b;fill-opacity:1;stroke:none;stroke-width:10;marker:none;visibility:visible;display:inline;overflow:visible;enable-background:accumulate;font-family:Sans;-inkscape-font-specification:Sans" />
          <path
             style="font-size:medium;font-style:normal;font-variant:normal;font-weight:normal;font-stretch:normal;text-indent:0;text-align:start;text-decoration:none;line-height:normal;letter-spacing:normal;word-spacing:normal;text-transform:none;direction:ltr;block-progression:tb;writing-mode:lr-tb;text-anchor:start;baseline-shift:baseline;color:#000000;fill:#ffffff;fill-opacity:1;stroke:none;stroke-width:10;marker:none;visibility:visible;display:inline;overflow:visible;enable-background:accumulate;font-family:Sans;-inkscape-font-specification:Sans"
             d="m 1773.5033,438.15457 c -2.237,2.98921 -2.9787,3.17194 0,7.5836 57.1233,35.5081 115.6628,37.49504 175.8706,0 3.2494,-3.5993 2.4403,-3.9843 0,-7.5836 -56.5787,-38.35443 -119.068,-35.04536 -175.8706,0 z"
             id="path3793"
             inkscape:connector-curvature="0"
             sodipodi:nodetypes="ccccc" />
          <path
             sodipodi:nodetypes="sccsccs"
             inkscape:connector-curvature="0"
             id="path3800"
             d="m 1904.0333,431.66277 c 0,17.9975 -10.7124,33.493 -26.1088,40.45819 -9.9186,1.23507 -22.6477,1.7894 -37.8952,-0.63695 -14.6707,-7.24245 -24.7618,-22.35339 -24.7618,-39.82124 0,-4.94732 0.8095,-9.70557 2.3032,-14.14954 13.9562,-6.11018 59.7002,-11.99808 83.3889,-2.11232 1.9839,5.03569 3.0737,10.52151 3.0737,16.26186 z"
             style="fill:#502d16;fill-opacity:1;fill-rule:evenodd;stroke:none" />
          <path
             sodipodi:nodetypes="sssccs"
             inkscape:connector-curvature="0"
             id="path3806"
             d="m 1887.6752,433.13872 c 0,15.48149 -12.5502,28.03172 -28.0318,28.03172 -15.4814,0 -28.0316,-12.55023 -28.0316,-28.03172 0,-8.53191 3.8117,-16.17354 9.825,-21.3149 6.0603,-0.74445 23.6707,-2.54956 34.6387,-1.39811 7.0283,5.09355 11.5997,13.36942 11.5997,22.71301 z"
             style="fill:#000000;fill-opacity:1;fill-rule:evenodd;stroke:none" />
        </g>
      </g>
      <path
         sodipodi:nodetypes="ccccc"
         inkscape:connector-curvature="0"
         id="path3832"
         d="m 2311.3968,438.15457 c 2.237,2.98921 2.9787,3.17194 0,7.5836 -57.1234,35.5081 -115.6628,37.49504 -175.8707,0 -3.2494,-3.5993 -2.4403,-3.9843 0,-7.5836 56.5787,-38.35443 119.0681,-35.04536 175.8707,0 z"
         style="font-size:medium;font-style:normal;font-variant:normal;font-weight:normal;font-stretch:normal;text-indent:0;text-align:start;text-decoration:none;line-height:normal;letter-spacing:normal;word-spacing:normal;text-transform:none;direction:ltr;block-progression:tb;writing-mode:lr-tb;text-anchor:start;baseline-shift:baseline;color:#000000;fill:#ffffff;fill-opacity:1;stroke:none;stroke-width:10;marker:none;visibility:visible;display:inline;overflow:visible;enable-background:accumulate;font-family:Sans;-inkscape-font-specification:Sans" />
      <path
         style="fill:#502d16;fill-opacity:1;fill-rule:evenodd;stroke:none"
         d="m 2180.8667,431.66277 c 0,17.9975 10.7124,33.493 26.1088,40.45819 9.9186,1.23507 22.6477,1.7894 37.8952,-0.63695 14.6707,-7.24245 24.7618,-22.35339 24.7618,-39.82124 0,-4.94732 -0.8095,-9.70557 -2.3032,-14.14954 -13.9562,-6.11018 -59.7002,-11.99808 -83.3889,-2.11232 -1.9839,5.03569 -3.0737,10.52151 -3.0737,16.26186 z"
         id="path3834"
         inkscape:connector-curvature="0"
         sodipodi:nodetypes="sccsccs" />
      <path
         style="fill:#000000;fill-opacity:1;fill-rule:evenodd;stroke:none"
         d="m 2197.2248,433.13872 c 0,15.48149 12.5503,28.03172 28.0318,28.03172 15.4814,0 28.0317,-12.55023 28.0317,-28.03172 0,-8.53191 -3.8117,-16.17354 -9.8251,-21.3149 -6.0603,-0.74445 -23.6706,-2.54956 -34.6386,-1.39811 -7.0283,5.09355 -11.5998,13.36942 -11.5998,22.71301 z"
         id="path3836"
         inkscape:connector-curvature="0"
         sodipodi:nodetypes="sssccs" />
      <path
         sodipodi:nodetypes="sccsccs"
         inkscape:connector-curvature="0"
         id="path3906"
         d="m 1854.5396,296.34476 c -69.75,7.50226 -104.8944,54.12707 -125.0087,102.47331 l 1.3908,11.31818 c 33.4158,-42.07897 57.2281,-64.72492 100.3159,-73.56797 43.0879,-8.84304 106.1154,-1.98047 149.528,74.65214 l -2.6581,-49.39858 c -15.6836,-53.20931 -53.3681,-73.02774 -123.5679,-65.47708 z"
         style="font-size:medium;font-style:normal;font-variant:normal;font-weight:normal;font-stretch:normal;text-indent:0;text-align:start;text-decoration:none;line-height:normal;letter-spacing:normal;word-spacing:normal;text-transform:none;direction:ltr;block-progression:tb;writing-mode:lr-tb;text-anchor:start;baseline-shift:baseline;color:#000000;fill:#000000;fill-opacity:1;stroke:none;stroke-width:1px;marker:none;visibility:visible;display:inline;overflow:visible;enable-background:accumulate;font-family:Sans;-inkscape-font-specification:Sans" />
      <path
         style="font-size:medium;font-style:normal;font-variant:normal;font-weight:normal;font-stretch:normal;text-indent:0;text-align:start;text-decoration:none;line-height:normal;letter-spacing:normal;word-spacing:normal;text-transform:none;direction:ltr;block-progression:tb;writing-mode:lr-tb;text-anchor:start;baseline-shift:baseline;color:#000000;fill:#000000;fill-opacity:1;stroke:none;stroke-width:1px;marker:none;visibility:visible;display:inline;overflow:visible;enable-background:accumulate;font-family:Sans;-inkscape-font-specification:Sans"
         d="m 2240.0426,296.34476 c 69.75,7.50226 104.8944,54.12707 125.0087,102.47331 l -1.3908,11.31818 c -33.4158,-42.07897 -57.2281,-64.72492 -100.3159,-73.56797 -43.0879,-8.84304 -106.1154,-1.98047 -149.528,74.65214 l 2.6581,-49.39858 c 15.6836,-53.20931 53.3681,-73.02774 123.5679,-65.47708 z"
         id="path3916"
         inkscape:connector-curvature="0"
         sodipodi:nodetypes="sccsccs" />
      <path
         sodipodi:nodetypes="sssccs"
         inkscape:connector-curvature="0"
         id="path3918"
         d="m 1898.5817,435.41153 c 0,7.67101 -6.2185,13.8896 -13.8896,13.8896 -7.671,0 -13.8896,-6.21859 -13.8896,-13.8896 0,-3.41759 1.2343,-6.54688 3.2815,-8.96642 6.6549,-0.40535 18.0167,0.57063 22.5755,1.91201 1.2213,2.06755 1.9222,4.47913 1.9222,7.05441 z"
         style="fill:#ffffff;fill-opacity:1;fill-rule:evenodd;stroke:none"
         transform="translate(-5.555839,-16.667517)" />
      <path
         style="fill:#ffffff;fill-opacity:1;fill-rule:evenodd;stroke:none"
         d="m 2250.9987,418.74401 c 0,7.67101 -6.2185,13.8896 -13.8896,13.8896 -7.671,0 -13.8896,-6.21859 -13.8896,-13.8896 0,-3.41759 1.0765,-5.97867 3.1237,-8.39821 6.1634,-0.0324 17.9914,1.28642 22.828,2.41709 1.2213,2.06755 1.8275,3.40584 1.8275,5.98112 z"
         id="path3923"
         inkscape:connector-curvature="0"
         sodipodi:nodetypes="sssccs" />
      <path
         transform="matrix(1.725047,0,0,1.725047,-1332.6767,-199.89558)"
         d="m 1960,209.50504 c 0,42.60482 -34.538,77.14286 -77.1428,77.14286 -42.6048,0 -77.1429,-34.53804 -77.1429,-77.14286 0,-42.60483 34.5381,-77.14287 77.1429,-77.14287 42.6048,0 77.1428,34.53804 77.1428,77.14287 z"
         sodipodi:ry="77.14286"
         sodipodi:rx="77.14286"
         sodipodi:cy="209.50504"
         sodipodi:cx="1882.8572"
         id="path3942"
         style="fill:url(#radialGradient4450);fill-opacity:1;fill-rule:evenodd;stroke:none"
         sodipodi:type="arc" />
      <path
         sodipodi:nodetypes="sssssssss"
         inkscape:connector-curvature="0"
         id="path4113"
         d="m 2200.0701,607.88021 c 1.4708,26.13105 -6.9129,36.95947 -64.2339,13.3105 -23.9436,-9.87842 -33.4915,49.33382 -78.1555,49.33382 -48.4698,0 -63.0968,-49.21512 -90.8535,-42.86108 -40.2473,9.21338 -67.0423,10.60387 -63.6788,-8.35467 3.5939,-20.2581 19.9157,-45.35705 53.9215,-38.45727 27.1535,5.50947 61.5243,-51.71936 100.6108,-52.75848 52.5558,-1.39721 57.9716,33.6208 84.357,46.09837 29.8974,14.13837 57.0844,16.8477 58.0324,33.68881 z"
         style="fill:#502d16;fill-opacity:1;fill-rule:evenodd;stroke:none"
         transform="translate(-9.7764216,0)" />
      <path
         style="fill:#000000;fill-opacity:1;fill-rule:evenodd;stroke:none"
         d="m 2010.3418,624.73632 c -2.5019,4.33333 -24.7895,-10.50625 -44.3176,-10.56781 -13.2338,-0.0417 -26.5052,27.56285 -42.5503,11.51762 -6.7064,-6.70632 11.4011,-23.09848 35.3891,-23.36077 23.9878,-0.26228 53.9806,18.07763 51.4788,22.41096 z"
         id="path4034"
         inkscape:connector-curvature="0"
         sodipodi:nodetypes="zsssz" />
      <path
         sodipodi:type="arc"
         style="fill:url(#radialGradient4452);fill-opacity:1;fill-rule:evenodd;stroke:none"
         id="path3968"
         sodipodi:cx="1882.8572"
         sodipodi:cy="209.50504"
         sodipodi:rx="77.14286"
         sodipodi:ry="77.14286"
         d="m 1960,209.50504 c 0,42.60482 -34.538,77.14286 -77.1428,77.14286 -42.6048,0 -77.1429,-34.53804 -77.1429,-77.14286 0,-42.60483 34.5381,-77.14287 77.1429,-77.14287 42.6048,0 77.1428,34.53804 77.1428,77.14287 z"
         transform="matrix(1.2935001,-0.29583434,0.1595861,0.69777104,-644.284,967.33771)" />
      <path
         transform="matrix(1.35604,0.35196683,-0.17982757,0.69283056,-252.35732,-254.20144)"
         d="m 1960,209.50504 c 0,42.60482 -34.538,77.14286 -77.1428,77.14286 -42.6048,0 -77.1429,-34.53804 -77.1429,-77.14286 0,-42.60483 34.5381,-77.14287 77.1429,-77.14287 42.6048,0 77.1428,34.53804 77.1428,77.14287 z"
         sodipodi:ry="77.14286"
         sodipodi:rx="77.14286"
         sodipodi:cy="209.50504"
         sodipodi:cx="1882.8572"
         id="path3982"
         style="fill:url(#radialGradient4454);fill-opacity:1;fill-rule:evenodd;stroke:none"
         sodipodi:type="arc" />
      <path
         sodipodi:nodetypes="zsssz"
         inkscape:connector-curvature="0"
         id="path4036"
         d="m 2080.7819,624.73633 c 2.5018,4.33333 24.7894,-10.50625 44.3176,-10.56782 13.2337,-0.0417 26.5051,27.56286 42.5503,11.51762 6.7063,-6.70632 -11.4012,-23.09848 -35.3891,-23.36076 -23.9879,-0.26229 -53.9807,18.07762 -51.4788,22.41096 z"
         style="fill:#000000;fill-opacity:1;fill-rule:evenodd;stroke:none" />
      <path
         sodipodi:nodetypes="czssssssscscccssssssscc"
         inkscape:connector-curvature="0"
         id="path4073"
         d="m 1998.6437,500.81889 c -9.7446,27.71014 -19.0132,64.68871 -36.3654,77.78175 -17.3522,13.09304 -31.1433,-0.37172 -43.9986,7.07107 -7.8732,4.55836 -13.7329,12.79093 -17.1726,21.2132 -2.6856,6.57578 -8.8444,18.15907 -2.0203,21.2132 15.1731,6.79075 21.4522,3.4207 22.2234,-3.03045 1.526,-12.76506 10.8001,-17.29964 31.946,-22.4759 0,0 12.1983,-1.55587 20.3294,1.89404 6.9657,2.95548 14.74,4.99278 21.4657,8.46003 7.5537,3.89411 21.2132,14.14213 21.2132,14.14213 11.7517,9.51423 17.2168,8.62083 32.3249,9.09137 13.5917,0.42331 24.6062,-0.90438 33.8401,-12.12182 2.4731,-12.43897 33.7802,-20.91129 44.9518,-21.21321 6.566,-2.52538 19.6979,1.01015 23.7386,3.03045 3.3578,-0.0284 15.8766,7.56551 17.5297,15.65738 0.8337,4.08066 -2.5353,5.01678 -5.4079,8.08122 -4.6528,4.96344 20.1164,5.01486 22.1367,-1.04606 2.0203,-6.06091 3.2888,-15.29955 1.6019,-22.69253 -1.2078,-5.29337 -4.1865,-10.3594 -8.0813,-14.14214 -4.1062,-3.9881 -13.1855,-4.55155 -15.1522,-8.08122 -3.3585,-6.02762 -39.9391,4.23616 -43.4366,-12.62691 l -14.1421,-68.18529 z"
         style="fill:url(#radialGradient4456);fill-opacity:1;stroke:none" />
      <path
         d="m 2092.8572,489.73227 c 0,72.71149 -19.8273,131.65579 -44.2857,131.65579 -24.4583,0 -44.2857,-58.9443 -44.2857,-131.65579 0,-72.71149 19.8274,-131.65579 44.2857,-131.65579 24.4584,0 44.2857,58.9443 44.2857,131.65579 z"
         sodipodi:ry="131.65579"
         sodipodi:rx="44.285713"
         sodipodi:cy="489.73227"
         sodipodi:cx="2048.5715"
         id="path4095"
         style="fill:url(#radialGradient4458);fill-opacity:1;fill-rule:evenodd;stroke:none"
         sodipodi:type="arc" />
      <g
         transform="matrix(1.0934855,0,0,1,-191.55259,3.2247987)"
         id="g4267">
        <path
           sodipodi:type="arc"
           style="fill:#faf7e8;fill-opacity:1;fill-rule:evenodd;stroke:none"
           id="path4237"
           sodipodi:cx="1479.6428"
           sodipodi:cy="785.2193"
           sodipodi:rx="123.92857"
           sodipodi:ry="50"
           d="m 1603.5714,785.2193 c 0,27.61424 -55.4847,50 -123.9286,50 -68.4438,0 -123.9286,-22.38576 -123.9286,-50 0,-27.61424 55.4848,-50 123.9286,-50 68.4439,0 123.9286,22.38576 123.9286,50 z"
           transform="matrix(1.0259366,0,0,1,530.40026,-8.5714286)" />
        <path
           style="fill:none;stroke:#000000;stroke-width:2;stroke-linecap:butt;stroke-linejoin:miter;stroke-miterlimit:4;stroke-opacity:1;stroke-dasharray:none"
           d="m 1920.3543,781.43825 c 77.9843,17.32402 164.631,19.191 254.6528,0.71429"
           id="path4231"
           inkscape:connector-curvature="0"
           sodipodi:nodetypes="cc" />
        <path
           style="fill:#501c16;fill-opacity:1;fill-rule:evenodd;stroke:none"
           d="m 1921.8949,771.64585 c -4.9416,6.57585 -3.6283,9.49154 -3.6283,16.8868 0,34.23257 58.4719,74.36569 129.6757,74.36569 71.2038,0 126.7933,-43.47304 126.7933,-77.70561 0,-7.39526 4.9714,-3.23731 0.03,-9.81316 -17.9355,24.81609 -71.0046,37.63123 -126.8231,37.63123 -36.4493,0 -108.1119,-16.54886 -126.0474,-41.36495 z"
           id="path4118"
           inkscape:connector-curvature="0"
           sodipodi:nodetypes="cssscsc" />
        <path
           sodipodi:nodetypes="cssscsc"
           inkscape:connector-curvature="0"
           id="path4167"
           d="m 1921.8516,771.82694 c -4.9416,-6.57585 -2.4703,-1.739 -2.4703,-9.13426 0,-34.23257 56.4337,-47.60407 127.6375,-47.60407 71.2038,0 129.8597,18.3715 129.8597,52.60407 0,5.60955 3.1856,2.52303 -1.756,9.09888 -17.9355,-24.81609 -75.6475,-30.48837 -131.466,-30.48837 -36.4493,0 -103.8694,0.70766 -121.8049,25.52375 z"
           style="fill:#501c16;fill-opacity:1;fill-rule:evenodd;stroke:none" />
        <path
           sodipodi:nodetypes="cssscsc"
           inkscape:connector-curvature="0"
           id="path4187"
           d="m 1921.8949,771.64585 c -4.9416,6.57585 -3.6283,9.49154 -3.6283,16.8868 0,34.23257 58.4719,74.36569 129.6757,74.36569 71.2038,0 126.7933,-43.47304 126.7933,-77.70561 0,-7.39526 4.9714,-3.23731 0.03,-9.81316 -17.9355,24.81609 -71.0046,37.63123 -126.8231,37.63123 -36.4493,0 -108.1119,-16.54886 -126.0474,-41.36495 z"
           style="fill:url(#radialGradient4460);fill-opacity:1;fill-rule:evenodd;stroke:none" />
        <path
           style="fill:url(#radialGradient4462);fill-opacity:1;fill-rule:evenodd;stroke:none"
           d="m 1921.8516,771.82694 c -4.9416,-6.57585 -2.4703,-1.739 -2.4703,-9.13426 0,-34.23257 56.4337,-47.60407 127.6375,-47.60407 71.2038,0 129.8597,18.3715 129.8597,52.60407 0,5.60955 3.1856,2.52303 -1.756,9.09888 -17.9355,-24.81609 -69.9331,-31.20265 -125.7516,-31.20265 -36.4493,0 -109.5838,1.42194 -127.5193,26.23803 z"
           id="path4221"
           inkscape:connector-curvature="0"
           sodipodi:nodetypes="cssscsc" />
        <path
           style="fill:none;stroke:#000000;stroke-width:1px;stroke-linecap:butt;stroke-linejoin:miter;stroke-opacity:1"
           d="m 2047.7057,746.6479 -0.7143,48.57143"
           id="path4239"
           inkscape:connector-curvature="0" />
        <path
           style="fill:none;stroke:#000000;stroke-width:1px;stroke-linecap:butt;stroke-linejoin:miter;stroke-opacity:1"
           d="m 2090.5628,791.6479 0.7143,-43.57143"
           id="path4241"
           inkscape:connector-curvature="0" />
        <path
           style="fill:none;stroke:#000000;stroke-width:1px;stroke-linecap:butt;stroke-linejoin:miter;stroke-opacity:1"
           d="m 2001.2771,748.79075 -1.4285,42.85715"
           id="path4243"
           inkscape:connector-curvature="0" />
        <path
           style="fill:none;stroke:#000000;stroke-width:1px;stroke-linecap:butt;stroke-linejoin:miter;stroke-opacity:1"
           d="m 1966.2771,750.21933 -1.4285,35.71428"
           id="path4245"
           inkscape:connector-curvature="0" />
        <path
           style="fill:none;stroke:#000000;stroke-width:1px;stroke-linecap:butt;stroke-linejoin:miter;stroke-opacity:1"
           d="m 1934.8486,782.36218 1.4285,-20.71428"
           id="path4247"
           inkscape:connector-curvature="0" />
        <path
           style="fill:none;stroke:#000000;stroke-width:1px;stroke-linecap:butt;stroke-linejoin:miter;stroke-opacity:1"
           d="m 2129.1343,752.36218 0,35.71429"
           id="path4249"
           inkscape:connector-curvature="0" />
        <path
           style="fill:none;stroke:#000000;stroke-width:1px;stroke-linecap:butt;stroke-linejoin:miter;stroke-opacity:1"
           d="m 2159.1343,763.79075 -0.7143,21.42858"
           id="path4251"
           inkscape:connector-curvature="0" />
        <path
           style="fill:none;stroke:#000000;stroke-width:1px;stroke-linecap:butt;stroke-linejoin:miter;stroke-opacity:1"
           d="m 2051.2771,795.93361 -0.7143,15.71429"
           id="path4253"
           inkscape:connector-curvature="0" />
        <path
           style="fill:none;stroke:#000000;stroke-width:1px;stroke-linecap:butt;stroke-linejoin:miter;stroke-opacity:1"
           d="m 2082.7057,796.6479 -0.7143,14.28571"
           id="path4255"
           inkscape:connector-curvature="0" />
        <path
           style="fill:none;stroke:#000000;stroke-width:1px;stroke-linecap:butt;stroke-linejoin:miter;stroke-opacity:1"
           d="m 2022.7057,808.79075 -0.7143,-12.85714"
           id="path4257"
           inkscape:connector-curvature="0" />
        <path
           style="fill:none;stroke:#000000;stroke-width:1px;stroke-linecap:butt;stroke-linejoin:miter;stroke-opacity:1"
           d="m 1989.1343,793.07647 -1.4286,11.42857"
           id="path4259"
           inkscape:connector-curvature="0" />
        <path
           style="fill:none;stroke:#000000;stroke-width:1px;stroke-linecap:butt;stroke-linejoin:miter;stroke-opacity:1"
           d="m 1966.9914,798.07647 0,-7.85714"
           id="path4261"
           inkscape:connector-curvature="0" />
        <path
           style="fill:none;stroke:#000000;stroke-width:1px;stroke-linecap:butt;stroke-linejoin:miter;stroke-opacity:1"
           d="m 2111.2771,792.36218 0.7143,14.28572"
           id="path4263"
           inkscape:connector-curvature="0" />
        <path
           style="fill:none;stroke:#000000;stroke-width:1px;stroke-linecap:butt;stroke-linejoin:miter;stroke-opacity:1"
           d="m 2143.42,800.21933 -1.4286,-11.42858"
           id="path4265"
           inkscape:connector-curvature="0" />
      </g>
      <path
         transform="matrix(1.7468355,0,0,0.96407188,-1427.3147,59.652881)"
         d="m 1920.7143,785.57648 c 0,32.93984 -12.632,59.64285 -28.2143,59.64285 -15.5823,0 -28.2143,-26.70301 -28.2143,-59.64285 0,-32.93984 12.632,-59.64286 28.2143,-59.64286 15.5823,0 28.2143,26.70302 28.2143,59.64286 z"
         sodipodi:ry="59.642857"
         sodipodi:rx="28.214285"
         sodipodi:cy="785.57648"
         sodipodi:cx="1892.5"
         id="path4293"
         style="fill:#000000;fill-opacity:1;fill-rule:evenodd;stroke:none"
         sodipodi:type="arc" />
      <path
         id="path4297"
         d="m 2181.7812,699.625 c -0.5643,0.0203 -1.1295,0.0485 -1.6874,0.125 -17.8552,2.44872 -25.4528,33.10504 -16.9688,68.46875 1.4845,6.18786 3.3777,12.10951 5.5625,17.65625 -1.8564,6.49356 -2.9063,14.01539 -2.9063,22.03125 0,24.54724 9.9452,44.4375 22.2188,44.4375 8.6712,0 16.1815,-9.9196 19.8438,-24.40625 1.0026,0.0386 2.0158,0.01 3,-0.125 17.8551,-2.44872 25.4527,-33.10504 16.9687,-68.46875 -8.2189,-34.2586 -28.5378,-60.34647 -46.0313,-59.71875 z"
         style="fill:#000000;fill-opacity:1;fill-rule:evenodd;stroke:none"
         inkscape:connector-curvature="0" />
      <path
         sodipodi:type="arc"
         style="fill:#000000;fill-opacity:1;fill-rule:evenodd;stroke:none"
         id="path4299"
         sodipodi:cx="1892.5"
         sodipodi:cy="785.57648"
         sodipodi:rx="28.214285"
         sodipodi:ry="59.642857"
         d="m 1920.7143,785.57648 c 0,32.93984 -12.632,59.64285 -28.2143,59.64285 -15.5823,0 -28.2143,-26.70301 -28.2143,-59.64285 0,-32.93984 12.632,-59.64286 28.2143,-59.64286 15.5823,0 28.2143,26.70302 28.2143,59.64286 z"
         transform="matrix(0,0.78481015,-1.661156,0,3352.8693,-780.39104)" />
      <path
         sodipodi:type="arc"
         style="fill:#000000;fill-opacity:1;fill-rule:evenodd;stroke:none"
         id="path4306"
         sodipodi:cx="1892.5"
         sodipodi:cy="785.57648"
         sodipodi:rx="28.214285"
         sodipodi:ry="59.642857"
         d="m 1920.7143,785.57648 c 0,32.93984 -12.632,59.64285 -28.2143,59.64285 -15.5823,0 -28.2143,-26.70301 -28.2143,-59.64285 0,-32.93984 12.632,-59.64286 28.2143,-59.64286 15.5823,0 28.2143,26.70302 28.2143,59.64286 z"
         transform="matrix(1.7468355,0,0,1.3113773,-1420.1719,-266.75349)" />
    </g>
  </g>
</svg>
